<?xml version="1.0" encoding="utf-8"?>
<!-- Svg Vector Icons : http://www.onlinewebfonts.com/icon -->
<!DOCTYPE svg PUBLIC "-//W3C//DTD SVG 1.1//EN" "http://www.w3.org/Graphics/SVG/1.1/DTD/svg11.dtd">
<svg version="1.1" xmlns="http://www.w3.org/2000/svg" xmlns:xlink="http://www.w3.org/1999/xlink" x="0px" y="0px" viewBox="0 0 1000 1000" enable-background="new 0 0 1000 1000" xml:space="preserve">
<metadata> Svg Vector Icons : http://www.onlinewebfonts.com/icon </metadata>
<g><path d="M990,797.5c0,87-94,157.5-210,157.5c-115.9,0-210-70.5-210-157.5c0-86.9,94.1-157.5,210-157.5c38.3,0,77,7.8,107.9,21.3V278.5L427.1,401.6V850h-1.4c-11.6,78.8-97.6,140-205.7,140c-116,0-210-70.5-210-157.5C10,745.6,104,675,220,675c38.3,0,74.1,7.8,105,21.3V185L990,10v770h-1.4C989.4,785.7,990,791.5,990,797.5z"/></g>
</svg>